<?xml version="1.0"?>
<svg width="400" height="380" xmlns="http://www.w3.org/2000/svg" xmlns:svg="http://www.w3.org/2000/svg" xmlns:xlink="http://www.w3.org/1999/xlink">
<!--Created with SVG-edit - https://github.com/SVG-Edit/svgedit-->
  <defs>
    <symbol height="800px" id="svg_12" viewBox="0 0 24 24" width="800px" xmlns="http://www.w3.org/2000/svg">
      <g id="svg_11" stroke-width="0"/>
      <g id="svg_10" stroke-linecap="round" stroke-linejoin="round"/>
      <g id="svg_9">
        <path clip-rule="evenodd" d="m2,14.8l0,6.45c0,0.41 0.34,0.75 0.75,0.75l1.61,0a0.75,0.75 0 0 0 0.74,-0.63l0.4,-2.37l13,0l0.39,2.37a0.75,0.75 0 0 0 0.74,0.63l1.62,0a0.75,0.75 0 0 0 0.75,-0.75l0,-6.45a5.95,5.95 0 0 0 -1,-3.3l-0.78,-1.17a1.99,1.99 0 0 1 -0.18,-0.33l1,0a0.75,0.75 0 0 0 0.67,-0.41l0.25,-0.5a0.75,0.75 0 0 0 -0.67,-1.09l-1.69,0l-0.31,-1.55a2.5,2.5 0 0 0 -1.88,-1.94c-1.47,-0.34 -3.27,-0.51 -5.41,-0.51c-2.14,0 -3.94,0.17 -5.41,0.51a2.5,2.5 0 0 0 -1.88,1.94l-0.31,1.55l-1.69,0a0.75,0.75 0 0 0 -0.67,1.09l0.25,0.5a0.75,0.75 0 0 0 0.67,0.41l1,0a2,2 0 0 1 -0.18,0.33l-0.78,1.17c-0.65,0.98 -1,2.13 -1,3.3zm15.96,-4.8a4,4 0 0 0 0.34,1l-12.6,0c0.16,-0.31 0.27,-0.65 0.34,-1l0.63,-3.15a0.5,0.5 0 0 1 0.38,-0.39c1.3,-0.3 2.95,-0.46 4.95,-0.46c2,0 3.65,0.16 4.95,0.46a0.5,0.5 0 0 1 0.38,0.39l0.63,3.15zm-12.46,6a1.5,1.5 0 1 0 0,-3a1.5,1.5 0 0 0 0,3zm14.5,-1.5a1.5,1.5 0 1 1 -3,0a1.5,1.5 0 0 1 3,0z" fill="#000000" fill-rule="evenodd"/>
      </g>
    </symbol>
    <symbol height="800px" id="svg_17" viewBox="0 0 512 512" width="800px" xmlns="http://www.w3.org/2000/svg">
      <g id="svg_16" stroke-width="0"/>
      <g id="svg_15" stroke-linecap="round" stroke-linejoin="round"/>
      <g id="svg_14">
        <path d="m73.81,39.28c70.52,36.34 49.06,103.82 8.38,138.22c-88.6,74.93 -82.78,199.22 48.25,244.56c-10.53,-32.92 -9.56,-66.27 2.06,-99.06c-30.19,-25.72 -38.38,-63.25 11.91,-135.66c30.38,-43.75 23.92,-140.87 -70.6,-148.06zm361.5,0c-94.51,7.19 -100.98,104.31 -70.59,148.06c47.77,68.8 42.74,106.11 16.22,131.72c7.03,17.74 12.06,35.84 13.28,54.47c0.96,14.7 -0.57,29.68 -5.25,44.72c120.97,-48.17 124.15,-167.84 37.93,-240.75c-40.67,-34.4 -62.11,-101.88 8.41,-138.22zm-79.87,268.35c-66.13,9.62 -131.4,17.49 -196.22,0.68c-23.47,45.56 -24.2,89.26 0.47,134.66c65.57,-6.14 131.11,-5.81 196.59,0.06c15.8,-23.5 20.76,-45.73 19.28,-68.28c-1.44,-21.96 -9.35,-44.36 -20.12,-67.13l0,0.01z" fill="#ffffff"/>
      </g>
    </symbol>
  </defs>
  <g class="layer">
    <title>Layer 1</title>
    <use fill="#ffffff" id="svg_13" stroke-width="0" transform="matrix(1, 0, 0, 1, 0, 0) matrix(0.594382, 0, 0, 0.626953, -37.0915, -82.0644)" xlink:href="#svg_12"/>
    <use id="svg_18" transform="matrix(0.194647, 0, 0, 0.184724, 123.136, 170.73)" xlink:href="#svg_17"/>
  </g>
</svg>
